<?xml version="1.0" encoding="UTF-8"?><svg xmlns="http://www.w3.org/2000/svg" viewBox="0 0 2000 2000"><defs><style>.c{fill:#cf0;}.c,.d{stroke-width:0px;}.d{fill:#303030;}</style></defs><g id="a"><rect class="d" x="8.44" y="8.44" width="1983.11" height="1983.11" rx="350" ry="350"/></g><g id="b"><path class="c" d="M498.96,971.29c-40.45,0-75.68,22.18-105.69,112.21l-69.16-30.01c45.67-122.65,110.91-163.1,177.45-163.1,103.08,0,157.88,109.6,232.26,109.6,40.45,0,75.68-20.88,105.69-112.21l69.16,31.32c-45.67,121.35-110.91,161.8-177.45,161.8-103.08,0-157.88-109.6-232.26-109.6Z"/><path class="c" d="M1169.62,1193.11c65.24,48.28,144.83,88.73,242.7,88.73s156.58-45.67,156.58-112.21c0-161.8-413.63-133.09-413.63-360.13,0-122.65,106.99-199.64,257.05-199.64,114.82,0,182.67,43.06,241.39,100.47l-57.41,63.94c-58.72-46.97-105.69-74.37-191.81-74.37s-142.22,41.75-142.22,106.99c0,143.53,413.63,116.13,413.63,354.91,0,125.26-112.21,210.08-276.62,210.08-106.99,0-213.99-46.97-280.54-103.08l50.89-75.68ZM1367.95,440.23h78.29v210.08h-78.29v-210.08ZM1446.24,1334.03v225.73h-78.29v-225.73h78.29Z"/></g></svg>